<svg xmlns="http://www.w3.org/2000/svg" width="640" height="620" viewBox="0 0 640 620"><style type="text/css">.st0{fill:#D1CEC7;stroke:#4E5356;stroke-width:5;stroke-miterlimit:10;} .st1{fill:#38353A;} .st2{fill:#C1C0BD;} .st3{fill:none;stroke:#455864;stroke-width:2;stroke-miterlimit:10;} .st4{fill:#B6B3B2;stroke:#455864;stroke-width:2;stroke-miterlimit:10;} .st5{fill:#D1D1D1;stroke:#455864;stroke-width:2;stroke-miterlimit:10;} .st6{fill:#D1CEC7;stroke:#455864;stroke-width:2;stroke-miterlimit:10;} .st7{fill:#D1CEC7;stroke:#455864;stroke-miterlimit:10;} .st8{fill:none;stroke:#455864;stroke-width:5;stroke-miterlimit:10;} .st9{fill:#E7E5D6;stroke:#455864;stroke-width:2;stroke-miterlimit:10;} .st10{fill:#E9E8DB;stroke:#455864;stroke-width:2;stroke-miterlimit:10;} .st11{fill:#EAD16B;stroke:#455864;stroke-width:2;stroke-miterlimit:10;} .st12{fill:#AF3F3F;stroke:#455864;stroke-width:2;stroke-miterlimit:10;} .st13{fill:#4E5356;} .st14{fill:#F2F0E4;} .st15{fill:none;stroke:#455864;stroke-miterlimit:10;}</style><g id="computer"><path class="st0" d="M391.9 483.6h-282.7v-437.5h282.7v437.5"/><path class="st1" d="M109.3 484.6h-.1v.1l.1-.1"/><path class="st2" d="M111.7 48.6v432.5l277.7-432.5z"/><path class="st3" d="M135.4 244.8v52.8M145 244.8v52.8M154.6 244.8v52.8M164.1 244.8v52.8M173.7 244.8v52.8M183.3 244.8v27l10.5 11.3v14.5"/><path class="st4" d="M381.8 63.4h-84.4l-8.7 22.1h-169.4v130.8h9.1v36.3h70.5v-36.3h39.8l8.7 14h134.4z"/><path class="st5" d="M358.6 217.6h16.2v7h-16.2zM334.6 217.6h16.2v7h-16.2zM310.7 217.6h16.2v7h-16.2zM286.7 217.6h16.2v7h-16.2zM262.8 217.6h16.2v7h-16.2z"/><path class="st6" d="M299.6 85.7h48.4v-14.6h-45.1z"/><circle class="st6" cx="366.7" cy="78.4" r="7.3"/><path class="st6" d="M129.5 297.9h72v42.5h-72z"/><path class="st7" d="M133.3 303.4h6.6v4h-6.6zM154.6 325.3h6.6v4h-6.6zM173.7 309.6h6.6v4h-6.6z"/><path class="st8" d="M391.9 483.6c222.8 18.2 176.2 27 117.8 46-57.5 19-120.3 38.4 104.9 58.1"/><path class="st5" d="M262.8 252.6h24.4v14.9h-24.4zM294.3 252.6h24.4v14.9h-24.4zM325.9 252.6h24.4v14.9h-24.4zM357.4 252.6h24.4v14.9h-24.4zM262.8 274.7h24.4v14.9h-24.4zM294.3 274.7h24.4v14.9h-24.4zM325.9 274.7h24.4v14.9h-24.4zM357.4 274.7h24.4v14.9h-24.4zM262.8 296.7h24.4v14.9h-24.4zM294.3 296.7h24.4v14.9h-24.4z"/><path class="st9" d="M325.9 296.7h24.4v14.9h-24.4z"/><path class="st5" d="M357.4 296.7h24.4v14.9h-24.4zM262.8 318.8h24.4v14.9h-24.4zM294.3 318.8h24.4v14.9h-24.4zM325.9 318.8h24.4v14.9h-24.4z"/><path class="st10" d="M357.4 318.8h24.4v14.9h-24.4z"/><path class="st5" d="M262.8 340.8h24.4v14.9h-24.4zM294.3 340.8h24.4v14.9h-24.4zM325.9 340.8h24.4v14.9h-24.4zM357.4 340.8h24.4v14.9h-24.4zM262.8 362.9h24.4v14.9h-24.4z"/><path class="st11" d="M294.3 362.9h24.4v14.9h-24.4z"/><path class="st5" d="M325.9 362.9h24.4v14.9h-24.4zM357.4 362.9h24.4v14.9h-24.4z"/><path class="st12" d="M262.8 385h24.4v14.9h-24.4z"/><path class="st5" d="M294.3 385h24.4v14.9h-24.4zM325.9 385h24.4v14.9h-24.4zM357.4 385h24.4v14.9h-24.4z"/><path class="st2" d="M154.6 464.2h227.3v12.5h-227.3zM199.1 450.3h182.7v6.2h-182.7z"/><path class="st0" d="M20.1 405.6h76v77h-76z"/><path class="st13" d="M96.1 473.4h14.7v3.3h-14.7zM96.1 429.4h14.7v16.9h-14.7zM30.1 450.3h58v4.6h-58z"/><path class="st14" d="M85.8 532.5h-53.4v-79.1h53.4v79.1z"/><path class="st15" d="M48.4 464h39.4M49.2 473.7h39.4M45.4 483.3h39.4M39.4 493h39.4M33.3 502.6h39.4M29.6 512.2h39.4M30.4 521.9h39.4"/><path class="st6" d="M129.4 66.9h144.3v8.4h-144.3z"/><path class="st13" d="M53 434.8h33.8v3.1h-33.8z"/><circle class="st13" cx="39.4" cy="436.3" r="4.2"/></g></svg>