<?xml version="1.0" encoding="utf-8"?>
<!-- Generator: Adobe Illustrator 19.1.0, SVG Export Plug-In . SVG Version: 6.00 Build 0)  -->
<!DOCTYPE svg PUBLIC "-//W3C//DTD SVG 1.1//EN" "http://www.w3.org/Graphics/SVG/1.1/DTD/svg11.dtd">
<svg version="1.1" id="vintage-computer" xmlns="http://www.w3.org/2000/svg" xmlns:xlink="http://www.w3.org/1999/xlink" x="0px"
	 y="0px" width="640px" height="620px" viewBox="0 0 640 620" style="enable-background:new 0 0 640 620;" xml:space="preserve">
<style type="text/css">
	.st0{fill:#D1CEC7;stroke:#4E5356;stroke-width:5;stroke-miterlimit:10;}
	.st1{fill:#38353A;}
	.st2{fill:#C1C0BD;}
	.st3{fill:none;stroke:#455864;stroke-width:2;stroke-miterlimit:10;}
	.st4{fill:#B6B3B2;stroke:#455864;stroke-width:2;stroke-miterlimit:10;}
	.st5{fill:#D1D1D1;stroke:#455864;stroke-width:2;stroke-miterlimit:10;}
	.st6{fill:#D1CEC7;stroke:#455864;stroke-width:2;stroke-miterlimit:10;}
	.st7{fill:#D1CEC7;stroke:#455864;stroke-miterlimit:10;}
	.st8{fill:none;stroke:#455864;stroke-width:5;stroke-miterlimit:10;}
	.st9{fill:#E7E5D6;stroke:#455864;stroke-width:2;stroke-miterlimit:10;}
	.st10{fill:#E9E8DB;stroke:#455864;stroke-width:2;stroke-miterlimit:10;}
	.st11{fill:#EAD16B;stroke:#455864;stroke-width:2;stroke-miterlimit:10;}
	.st12{fill:#AF3F3F;stroke:#455864;stroke-width:2;stroke-miterlimit:10;}
	.st13{fill:#4E5356;}
	.st14{fill:#F2F0E4;}
	.st15{fill:none;stroke:#455864;stroke-miterlimit:10;}
</style>
<g id="computer">
	<polyline class="st0" points="391.9,483.6 109.2,483.6 109.2,46.1 391.9,46.1 391.9,483.6 	"/>
	<polyline class="st1" points="109.3,484.6 109.2,484.6 109.2,484.7 109.3,484.6 	"/>
	<polygon class="st2" points="111.7,48.6 111.7,481.1 389.4,48.6 	"/>
	<line class="st3" x1="135.4" y1="244.8" x2="135.4" y2="297.6"/>
	<line class="st3" x1="145" y1="244.8" x2="145" y2="297.6"/>
	<line class="st3" x1="154.6" y1="244.8" x2="154.6" y2="297.6"/>
	<line class="st3" x1="164.1" y1="244.8" x2="164.1" y2="297.6"/>
	<line class="st3" x1="173.7" y1="244.8" x2="173.7" y2="297.6"/>
	<polyline class="st3" points="183.3,244.8 183.3,271.8 193.8,283.1 193.8,297.6 	"/>
	<polygon class="st4" points="381.8,63.4 297.4,63.4 288.7,85.5 119.3,85.5 119.3,216.3 128.4,216.3 128.4,252.6 198.9,252.6 
		198.9,216.3 238.7,216.3 247.4,230.3 381.8,230.3 	"/>
	<rect x="358.6" y="217.6" class="st5" width="16.2" height="7"/>
	<rect x="334.6" y="217.6" class="st5" width="16.2" height="7"/>
	<rect x="310.7" y="217.6" class="st5" width="16.2" height="7"/>
	<rect x="286.7" y="217.6" class="st5" width="16.2" height="7"/>
	<rect x="262.8" y="217.6" class="st5" width="16.2" height="7"/>
	<polygon class="st6" points="299.6,85.7 348,85.7 348,71.1 302.9,71.1 	"/>
	<circle class="st6" cx="366.7" cy="78.4" r="7.3"/>
	<rect x="129.5" y="297.9" class="st6" width="72" height="42.5"/>
	<rect x="133.3" y="303.4" class="st7" width="6.6" height="4"/>
	<rect x="154.6" y="325.3" class="st7" width="6.6" height="4"/>
	<rect x="173.7" y="309.6" class="st7" width="6.6" height="4"/>
	<path class="st8" d="M391.9,483.6c222.8,18.2,176.2,27,117.8,46c-57.5,19-120.3,38.4,104.9,58.1"/>
	<rect x="262.8" y="252.6" class="st5" width="24.4" height="14.9"/>
	<rect x="294.3" y="252.6" class="st5" width="24.4" height="14.9"/>
	<rect x="325.9" y="252.6" class="st5" width="24.4" height="14.9"/>
	<rect x="357.4" y="252.6" class="st5" width="24.4" height="14.9"/>
	<rect x="262.8" y="274.7" class="st5" width="24.4" height="14.9"/>
	<rect x="294.3" y="274.7" class="st5" width="24.4" height="14.9"/>
	<rect x="325.9" y="274.7" class="st5" width="24.4" height="14.9"/>
	<rect x="357.4" y="274.7" class="st5" width="24.4" height="14.9"/>
	<rect x="262.8" y="296.7" class="st5" width="24.4" height="14.9"/>
	<rect x="294.3" y="296.7" class="st5" width="24.4" height="14.9"/>
	<rect x="325.9" y="296.7" class="st9" width="24.4" height="14.9"/>
	<rect x="357.4" y="296.7" class="st5" width="24.4" height="14.9"/>
	<rect x="262.8" y="318.8" class="st5" width="24.4" height="14.9"/>
	<rect x="294.3" y="318.8" class="st5" width="24.4" height="14.9"/>
	<rect x="325.9" y="318.8" class="st5" width="24.4" height="14.9"/>
	<rect x="357.4" y="318.8" class="st10" width="24.4" height="14.9"/>
	<rect x="262.8" y="340.8" class="st5" width="24.4" height="14.9"/>
	<rect x="294.3" y="340.8" class="st5" width="24.4" height="14.9"/>
	<rect x="325.9" y="340.8" class="st5" width="24.4" height="14.9"/>
	<rect x="357.4" y="340.8" class="st5" width="24.4" height="14.9"/>
	<rect x="262.8" y="362.9" class="st5" width="24.4" height="14.9"/>
	<rect x="294.3" y="362.9" class="st11" width="24.4" height="14.9"/>
	<rect x="325.9" y="362.9" class="st5" width="24.4" height="14.9"/>
	<rect x="357.4" y="362.9" class="st5" width="24.4" height="14.9"/>
	<rect x="262.8" y="385" class="st12" width="24.4" height="14.9"/>
	<rect x="294.3" y="385" class="st5" width="24.4" height="14.9"/>
	<rect x="325.9" y="385" class="st5" width="24.4" height="14.9"/>
	<rect x="357.4" y="385" class="st5" width="24.4" height="14.9"/>
	<rect x="154.6" y="464.2" class="st2" width="227.3" height="12.5"/>
	<rect x="199.1" y="450.3" class="st2" width="182.7" height="6.2"/>
	<rect x="20.1" y="405.6" class="st0" width="76" height="77"/>
	<rect x="96.1" y="473.4" class="st13" width="14.7" height="3.3"/>
	<rect x="96.1" y="429.4" class="st13" width="14.7" height="16.9"/>
	<rect x="30.1" y="450.3" class="st13" width="58" height="4.6"/>
	<g>
		<path class="st14" d="M85.8,532.5c-17.8,0-35.6,0-53.4,0c-35.2-26.4,35.2-52.7,0-79.1c17.8,0,35.6,0,53.4,0
			C121,479.8,50.6,506.1,85.8,532.5z"/>
		<g>
			<path class="st15" d="M48.4,464c13.1,0,26.3,0,39.4,0"/>
			<path class="st15" d="M49.2,473.7c13.1,0,26.3,0,39.4,0"/>
			<path class="st15" d="M45.4,483.3c13.1,0,26.3,0,39.4,0"/>
			<path class="st15" d="M39.4,493c13.1,0,26.3,0,39.4,0"/>
			<path class="st15" d="M33.3,502.6c13.1,0,26.3,0,39.4,0"/>
			<path class="st15" d="M29.6,512.2c13.1,0,26.3,0,39.4,0"/>
			<path class="st15" d="M30.4,521.9c13.1,0,26.3,0,39.4,0"/>
		</g>
	</g>
	<rect x="129.4" y="66.9" class="st6" width="144.3" height="8.4"/>
	<rect x="53" y="434.8" class="st13" width="33.8" height="3.1"/>
	<circle class="st13" cx="39.4" cy="436.3" r="4.2"/>
</g>
<g>
</g>
<g>
</g>
<g>
</g>
<g>
</g>
<g>
</g>
<g>
</g>
</svg>
