<svg xmlns="http://www.w3.org/2000/svg" width="130" height="130" viewBox="-478 278 130 130" enable-background="new -478 278 130 130"><style type="text/css">.st0{fill:#D1D1D1;stroke:#455864;stroke-width:2;stroke-miterlimit:10;}</style><path id="spool-right" class="st0" d="M-413 302.8c-22.2 0-40.2 18-40.2 40.2s18 40.2 40.2 40.2 40.2-18 40.2-40.2-18-40.2-40.2-40.2zm-5.1 16.1c0-2.8 2.3-5.1 5.1-5.1 1.4 0 2.7.6 3.6 1.5.9.9 1.5 2.2 1.5 3.6v5.1h-10.2v-5.1zm10.2 48.2c0 2.8-2.3 5.1-5.1 5.1-1.4 0-2.7-.6-3.6-1.5-.9-.9-1.5-2.2-1.5-3.6v-5.1h10.2v5.1zm-5.1-16.1c-4.4 0-7.9-3.5-7.9-7.9s3.6-7.9 7.9-7.9c4.3 0 7.9 3.5 7.9 7.9s-3.5 7.9-7.9 7.9z"/></svg>